<svg width="348" height="445" viewBox="0 0 348 445" fill="none" xmlns="http://www.w3.org/2000/svg">
<g style="mix-blend-mode:hard-light" filter="url(#filter0_f_1_175)">
<path d="M302.324 398.951H46L128.249 106H225.495L302.324 398.951Z" fill="url(#paint0_linear_1_175)" fill-opacity="0.6"/>
</g>
<g style="mix-blend-mode:hard-light">
<path d="M302.324 398.951H46L128.249 106H225.495L302.324 398.951Z" fill="url(#paint1_linear_1_175)"/>
</g>
<path d="M179.873 123.369C188.101 122.36 194.437 118.81 194.024 115.439C193.61 112.069 186.605 110.155 178.377 111.164C170.148 112.172 163.813 115.722 164.226 119.093C164.64 122.463 171.645 124.378 179.873 123.369Z" fill="#E2E2E2"/>
<path d="M179.873 123.369C188.101 122.36 194.437 118.81 194.024 115.439C193.61 112.069 186.605 110.155 178.377 111.164C170.148 112.172 163.813 115.722 164.226 119.093C164.64 122.463 171.645 124.378 179.873 123.369Z" fill="#FDFEFF"/>
<path d="M175.489 124.869C168.523 124.869 163.424 122.697 163 119.237C162.489 115.062 169.032 111.065 178.221 109.938C187.409 108.811 194.726 111.109 195.237 115.284C195.502 117.442 193.92 119.599 190.783 121.356C187.975 122.93 184.151 124.076 180.017 124.583C178.444 124.776 176.927 124.869 175.489 124.869ZM182.657 112.12C181.352 112.12 179.965 112.201 178.52 112.379C170.692 113.339 165.159 116.633 165.441 118.938C165.724 121.242 171.89 123.104 179.717 122.143C183.542 121.674 187.045 120.633 189.581 119.211C191.726 118.01 192.927 116.654 192.796 115.584C192.566 113.704 188.423 112.12 182.657 112.12Z" fill="#371A45"/>
<path d="M217.943 114.64C225.915 112.365 231.621 107.874 230.69 104.609C229.758 101.344 222.541 100.541 214.569 102.816C206.598 105.091 200.891 109.581 201.823 112.847C202.755 116.112 209.972 116.915 217.943 114.64Z" fill="#FDFEFF"/>
<path d="M209.413 117.162C208.612 117.162 207.843 117.122 207.113 117.041C203.539 116.643 201.242 115.273 200.646 113.182C200.049 111.091 201.277 108.715 204.102 106.491C206.632 104.5 210.232 102.774 214.237 101.632C223.14 99.09 230.723 100.225 231.877 104.27C232.474 106.36 231.247 108.736 228.421 110.96C225.891 112.951 222.292 114.677 218.286 115.82C215.195 116.703 212.125 117.162 209.413 117.162ZM223.142 102.752C220.785 102.752 217.945 103.131 214.912 103.996C211.207 105.054 207.908 106.626 205.623 108.424C203.691 109.945 202.715 111.471 203.01 112.507C203.306 113.544 204.941 114.325 207.385 114.597C210.275 114.919 213.906 114.513 217.611 113.456C221.317 112.398 224.615 110.826 226.9 109.028C228.832 107.508 229.808 105.981 229.513 104.945C229.13 103.605 226.679 102.752 223.142 102.752Z" fill="#371A45"/>
<path d="M156.017 118.472C156.132 115.078 149.51 112.099 141.225 111.817C132.94 111.535 126.131 114.058 126.015 117.451C125.9 120.844 132.522 123.824 140.807 124.106C149.092 124.388 155.901 121.865 156.017 118.472Z" fill="#FDFEFF"/>
<g opacity="0.2">
<path d="M179.873 123.369C188.101 122.36 194.437 118.81 194.024 115.439C193.61 112.069 186.605 110.155 178.377 111.164C170.148 112.172 163.813 115.722 164.226 119.093C164.64 122.463 171.645 124.378 179.873 123.369Z" fill="#371A45"/>
</g>
<g opacity="0.2">
<path d="M217.943 114.64C225.915 112.365 231.621 107.874 230.69 104.609C229.758 101.344 222.541 100.541 214.569 102.816C206.598 105.091 200.891 109.581 201.823 112.847C202.755 116.112 209.972 116.915 217.943 114.64Z" fill="#371A45"/>
</g>
<g opacity="0.2">
<path d="M156.017 118.472C156.132 115.078 149.51 112.099 141.225 111.817C132.94 111.535 126.131 114.058 126.015 117.451C125.9 120.844 132.522 123.824 140.807 124.106C149.092 124.388 155.901 121.865 156.017 118.472Z" fill="#371A45"/>
</g>
<path d="M142.067 125.348C141.635 125.348 141.201 125.34 140.764 125.326C136.601 125.184 132.691 124.379 129.755 123.058C126.476 121.583 124.711 119.574 124.785 117.401C124.858 115.228 126.756 113.343 130.128 112.094C133.147 110.975 137.104 110.437 141.265 110.579C150.517 110.893 157.387 114.3 157.244 118.504C157.17 120.677 155.273 122.562 151.901 123.811C149.199 124.812 145.746 125.348 142.067 125.348ZM139.951 113.016C136.564 113.016 133.416 113.498 130.982 114.4C128.677 115.254 127.279 116.407 127.242 117.484C127.206 118.561 128.522 119.807 130.764 120.815C133.415 122.008 136.996 122.737 140.847 122.868C144.696 122.998 148.32 122.515 151.047 121.505C153.352 120.651 154.75 119.498 154.787 118.42C154.865 116.1 149.064 113.304 141.181 113.037C140.769 113.023 140.358 113.016 139.951 113.016Z" fill="#371A45"/>
<path d="M179.125 117.266C215.99 112.746 244.952 101.547 243.812 92.2514C242.673 82.9561 211.863 79.085 174.998 83.605C138.132 88.125 109.17 99.3245 110.31 108.62C111.45 117.915 142.259 121.786 179.125 117.266Z" fill="#999999"/>
<path d="M243.782 93.4719C243.571 94.862 242.727 96.2872 241.323 97.716C233.603 105.571 208.948 113.604 179.119 117.261C149.29 120.919 123.425 119.08 114.036 113.323C112.328 112.276 111.165 111.097 110.624 109.799C112.42 104.113 140.769 96.3242 176.022 92.0018C211.275 87.6793 240.666 88.3888 243.782 93.4719Z" fill="#FDFEFF"/>
<g opacity="0.35">
<path d="M243.782 93.4719C243.571 94.862 242.727 96.2872 241.323 97.716C233.283 102.964 208.397 109.103 178.567 112.761C148.738 116.418 123.106 116.473 114.036 113.323C112.328 112.276 111.165 111.097 110.624 109.799C112.42 104.113 140.769 96.3242 176.022 92.0018C211.275 87.6793 240.666 88.3888 243.782 93.4719Z" fill="#371A45"/>
</g>
<path d="M149.755 120.544C142.991 120.545 136.708 120.197 131.142 119.498C121.458 118.281 109.742 115.435 108.926 108.784C108.111 102.133 118.792 96.5407 127.896 93.0201C140.217 88.2552 156.883 84.4197 174.822 82.2203C192.762 80.0207 209.861 79.7162 222.968 81.3629C232.653 82.5798 244.369 85.4263 245.184 92.0767C246 98.7273 235.319 104.32 226.215 107.84C213.893 112.605 197.228 116.441 179.288 118.64C168.966 119.906 158.92 120.544 149.755 120.544ZM204.355 83.0961C195.307 83.0961 185.379 83.7277 175.161 84.9806C157.442 87.153 141.013 90.9294 128.899 95.6138C117.668 99.9569 111.234 104.754 111.686 108.446C112.583 115.753 140.428 120.604 178.95 115.88C196.669 113.708 213.098 109.931 225.212 105.247C236.442 100.904 242.877 96.1071 242.424 92.4154C241.971 88.7236 234.569 85.6232 222.621 84.1223C217.166 83.437 210.997 83.0961 204.355 83.0961Z" fill="#371A45"/>
<path d="M284.459 67.0783C284.459 67.0783 285.001 71.4981 285.245 73.4915C286.709 85.4265 238.717 101.132 178.053 108.57C117.389 116.008 67.0251 112.363 65.5617 100.428C65.3024 98.3133 64.7754 94.0146 64.7754 94.0146" fill="#955AC6"/>
<g opacity="0.2">
<path d="M284.882 70.5172L285.246 73.4922C286.71 85.4262 238.719 101.131 178.053 108.57C117.388 116.008 67.024 112.363 65.5608 100.429L65.196 97.4537C66.6593 109.388 117.023 113.033 177.688 105.595C238.354 98.1564 286.345 82.4511 284.882 70.5172Z" fill="#0DAF04"/>
</g>
<path d="M119.71 113.662C112.502 113.662 105.731 113.44 99.5186 112.99C84.0276 111.869 65.3501 108.805 64.3413 100.577L63.555 94.164C63.4724 93.4899 63.9517 92.8766 64.6258 92.794C65.2988 92.71 65.9133 93.191 65.9959 93.8648L66.7821 100.278C67.3924 105.255 79.6965 109.09 99.6961 110.537C120.865 112.069 148.641 110.937 177.904 107.349C207.167 103.761 234.392 98.1496 254.565 91.5483C273.622 85.3118 284.635 78.6176 284.025 73.641L283.238 67.228L285.679 66.9288L286.466 73.3417C287.474 81.5696 270.09 89.0548 255.329 93.8855C235.01 100.535 207.619 106.183 178.203 109.79C157.356 112.346 137.246 113.662 119.71 113.662Z" fill="#371A45"/>
<path d="M177.145 102.178C237.811 94.7395 285.804 79.0341 284.341 67.0987C282.877 55.1633 232.512 51.5174 171.846 58.9555C111.18 66.3936 63.1865 82.099 64.6499 94.0344C66.1133 105.97 116.479 109.616 177.145 102.178Z" fill="#B9C5D3"/>
<g opacity="0.5">
<path d="M64.6753 94.1793C70.1169 82.6899 115.327 68.7716 171.348 61.9028C231.756 54.4958 281.944 58.0807 283.811 69.8959C284.262 68.9435 284.443 68.0076 284.331 67.094C282.867 55.159 232.503 51.5136 171.839 58.9519C111.175 66.3901 63.1839 82.0953 64.6472 94.0304C64.6534 94.0805 64.6675 94.1293 64.6753 94.1793Z" fill="white"/>
</g>
<g opacity="0.5">
<path d="M237.775 63.0026C238.459 68.5811 210.861 79.9962 175.621 84.3172C140.381 88.6381 110.843 84.2285 110.159 78.6501C109.475 73.0717 137.488 65.0467 172.728 60.7257C207.968 56.4047 237.091 57.4242 237.775 63.0026Z" fill="white"/>
</g>
<g opacity="0.35">
<path d="M219.144 68.5352C219.144 68.5352 237.337 75.0626 241.034 79.1088C244.732 83.155 251.292 87.2207 251.292 87.2207C251.292 87.2207 305.219 69.5948 275.348 60.451C275.348 60.451 283.073 64.1844 281.531 67.8267C279.3 73.0974 267.568 79.0222 259.683 81.7528C255.473 83.2107 250.809 82.5464 247.2 79.9329C242.416 76.4672 234.275 71.5349 223.001 68.0622C219.125 66.8681 219.144 68.5352 219.144 68.5352Z" fill="#371A45"/>
</g>
<g opacity="0.35">
<path d="M129.573 79.5178C129.573 79.5178 113.496 90.2473 110.885 95.0668C108.275 99.8865 102.891 105.417 102.891 105.417C102.891 105.417 46.3034 101.341 73.08 85.2519C73.08 85.2519 66.3297 90.8649 68.8624 93.9028C73.1197 99.0091 84.5942 101.307 92.8971 102.089C97.6445 102.537 102.3 100.635 105.396 97.0085C109.249 92.4954 115.87 85.93 125.715 79.9907C129.188 77.8956 129.573 79.5178 129.573 79.5178Z" fill="#371A45"/>
</g>
<g opacity="0.35">
<path d="M129.021 80.1642C129.021 80.1642 105.835 96.2919 103.142 105.621C103.142 105.621 133.995 107.463 177.267 102.157C220.539 96.851 250.354 86.8755 250.354 86.8755C250.354 86.8755 229.663 68.4105 217.47 68.9971C205.276 69.5836 214.082 70.2995 214.082 70.2995C214.082 70.2995 231.947 75.7105 241.783 83.0854C243.284 84.211 242.843 86.5659 241.03 87.049C231.446 89.6023 205.867 95.9676 176.568 99.5601C147.639 103.107 122.349 103.174 112.494 103.027C110.613 102.999 109.601 100.802 110.807 99.3571C112.155 97.7436 114.023 95.6832 116.452 93.3893C120.505 89.5615 131.571 81.1953 131.571 81.1953L129.021 80.1642Z" fill="#371A45"/>
</g>
<path d="M232.352 61.4481C233.14 67.8791 207.281 76.3416 174.593 80.3495C141.905 84.3575 114.767 82.3933 113.979 75.9622C113.19 69.5313 172.342 61.9871 172.342 61.9871C172.342 61.9871 231.563 55.0172 232.352 61.4481Z" fill="#293856"/>
<path d="M167.97 81.2445C168.396 81.2082 168.823 81.1698 169.251 81.1291L169.282 81.1252C171.029 80.9606 172.809 80.768 174.617 80.5463C177.723 80.1656 180.731 79.7214 183.602 79.2289C183.604 79.2287 183.604 79.2287 183.604 79.2287C200.109 76.3971 212.069 71.9427 211.638 68.4313C211.273 65.4544 191.38 66.9571 180.35 68.0224C180.206 68.0361 180.061 68.0519 179.92 68.0653C179.01 68.1531 178.167 68.2386 177.407 68.318C174.81 68.5849 173.174 68.7775 173.174 68.7775C173.174 68.7775 171.922 68.937 169.878 69.2232C169.75 69.2409 169.616 69.2594 169.479 69.2781C168.331 69.4407 166.961 69.6383 165.443 69.8662C154.384 71.5271 135.405 74.8105 135.764 77.7346C136.184 81.1601 148.268 82.6091 164.362 81.5267C164.424 81.521 164.485 81.5175 164.548 81.5138L167.97 81.2445Z" fill="#293856"/>
<path d="M232.352 61.4476C232.444 62.1944 232.176 62.9693 231.582 63.7619C223.062 59.6566 172.782 65.5764 172.782 65.5764C172.782 65.5764 122.561 71.9794 115.285 78.0214C114.517 77.3958 114.07 76.7086 113.978 75.9619C113.19 69.5327 172.342 61.9869 172.342 61.9869C172.342 61.9869 231.564 55.0185 232.352 61.4476Z" fill="#7A7A7A"/>
<path d="M118.924 107.41C111.711 107.41 104.937 107.187 98.7206 106.737C83.1693 105.612 64.4174 102.52 63.3953 94.1838C62.373 85.8472 79.8228 78.3168 94.6412 73.4674C114.97 66.815 142.372 61.164 171.798 57.556C201.225 53.9479 229.18 52.8113 250.514 54.3554C266.065 55.481 284.817 58.5728 285.839 66.9091C286.861 75.2457 269.412 82.7761 254.593 87.6255C234.264 94.2781 206.863 99.9289 177.436 103.537C156.584 106.094 136.466 107.409 118.924 107.41ZM230.302 56.4634C212.877 56.4634 192.884 57.7723 172.137 60.3161C142.884 63.903 115.669 69.5122 95.5061 76.1103C76.5275 82.3209 65.5554 88.9507 66.1556 93.845C66.7557 98.7393 79.0043 102.522 98.9213 103.964C120.082 105.496 147.845 104.364 177.098 100.776C206.351 97.1896 233.565 91.5807 253.728 84.9823C272.707 78.7714 283.679 72.1419 283.079 67.2476C282.479 62.3533 270.23 58.5707 250.313 57.1291C244.16 56.6836 237.445 56.4634 230.302 56.4634Z" fill="#371A45"/>
<path d="M231.689 62.5856C232.467 68.9307 206.953 77.2802 174.702 81.2347C142.45 85.1891 115.675 83.2511 114.897 76.906C112.17 54.6714 118.037 7.65893 164.974 1.90363C211.912 -3.85166 228.963 40.351 231.689 62.5856Z" fill="#3460B6"/>
<g opacity="0.35">
<path d="M231.689 62.5856C228.963 40.351 211.912 -3.85166 164.974 1.90363C147.654 4.02735 135.931 11.7718 128.164 21.8131C135.882 13.225 146.933 6.76517 162.515 4.85461C209.453 -0.900585 226.503 43.3019 229.23 65.5366C229.273 65.8897 229.23 66.2493 229.114 66.6138C230.933 65.2245 231.846 63.8643 231.689 62.5856Z" fill="white"/>
</g>
<g opacity="0.2">
<path d="M203.658 76.3626C191.761 77.6013 180.596 77.2227 171.339 76.28C165.816 75.7175 160.946 73.3968 157.184 69.9534C157.184 69.9535 157.184 69.9536 157.184 69.9538C149.325 64.4211 145.017 54.5029 147.265 44.3564C150.478 29.8564 156.739 12.8289 168.896 3.81696C168.736 3.83555 168.578 3.8502 168.418 3.86988C121.479 9.62517 115.614 56.6384 118.34 78.8724C118.384 79.2278 118.514 79.5686 118.717 79.896C118.292 79.6848 117.912 79.4642 117.578 79.2344C124.008 83.6673 147.797 84.6551 175.686 81.2356C187.793 79.751 198.947 77.6464 208.121 75.2613C206.681 75.6358 205.192 76.0034 203.658 76.3626Z" fill="#371A45"/>
</g>
<path d="M231.101 64.6212C227.093 70.6175 203.6 77.6923 174.702 81.2357C145.801 84.7793 121.299 83.5893 115.96 78.7391C129 75.3969 147.458 71.9308 173.175 68.7775C198.891 65.6243 217.64 64.5282 231.101 64.6212Z" fill="#371A45"/>
<path d="M143.682 84.6783C139.832 84.6783 136.215 84.5597 132.896 84.3196C120.516 83.4234 113.996 80.986 113.516 77.0752C110.581 53.1326 117.522 6.32089 164.805 0.523395C212.092 -5.27262 230.133 38.4741 233.069 62.4163C233.548 66.3275 227.81 70.2676 216.013 74.128C205.167 77.6776 190.555 80.6915 174.871 82.6147C163.759 83.9771 153.036 84.6783 143.682 84.6783ZM173.056 2.78729C170.517 2.78729 167.885 2.94743 165.144 3.28364C120.044 8.81338 113.458 53.7488 116.277 76.7365C116.442 78.0826 120.17 80.6102 133.097 81.5458C144.305 82.3576 159.021 81.7567 174.532 79.8545C190.044 77.9527 204.468 74.9803 215.149 71.4852C227.467 67.4542 230.474 64.1007 230.309 62.755C227.661 41.1644 212.28 2.78729 173.056 2.78729Z" fill="#371A45"/>
<path d="M165.13 55.3101L165.13 55.3122C165.126 55.3106 165.123 55.3063 165.12 55.3044C165.123 55.3065 165.125 55.3084 165.13 55.3101Z" fill="#E3F59F"/>
<path d="M176.51 95.9359C179.717 95.5426 182.102 93.4648 181.836 91.2949C181.57 89.1251 178.754 87.6849 175.546 88.0782C172.338 88.4714 169.954 90.5493 170.22 92.7191C170.486 94.889 173.302 96.3292 176.51 95.9359Z" fill="#FFCC05"/>
<g opacity="0.3">
<path d="M181.83 91.2896C181.882 91.7106 181.834 92.1269 181.699 92.5283C180.752 91.0397 178.42 90.1652 175.836 90.4821C173.251 90.7991 171.199 92.211 170.64 93.8843C170.413 93.5273 170.265 93.135 170.214 92.714C169.948 90.5447 172.334 88.4662 175.54 88.0731C178.747 87.6799 181.564 89.1203 181.83 91.2896Z" fill="#293856"/>
</g>
<path d="M175.451 96.9791C174.125 96.9791 172.862 96.6984 171.808 96.1592C170.32 95.3985 169.407 94.2174 169.238 92.8336C168.9 90.0834 171.616 87.5632 175.42 87.0966C179.224 86.6293 182.468 88.4191 182.806 91.1698C182.975 92.5535 182.375 93.92 181.115 95.0178C179.963 96.0221 178.367 96.6931 176.623 96.9071C176.23 96.9553 175.837 96.9791 175.451 96.9791ZM176.581 88.9929C176.28 88.9929 175.971 89.0112 175.66 89.0496C173.041 89.3706 170.994 90.994 171.19 92.5942C171.309 93.5593 172.189 94.1446 172.703 94.4078C173.718 94.9265 175.025 95.1216 176.383 94.9542C177.742 94.7877 178.963 94.2834 179.823 93.5346C180.258 93.1552 180.971 92.3745 180.853 91.4095C180.68 89.9996 178.814 88.9929 176.581 88.9929Z" fill="#371A45"/>
<path d="M219.812 89.2036C222.998 88.6636 225.284 86.4787 224.919 84.3235C224.554 82.1683 221.675 80.8589 218.489 81.3989C215.303 81.9389 213.016 84.1238 213.381 86.279C213.747 88.4342 216.626 89.7436 219.812 89.2036Z" fill="#FFCC05"/>
<g opacity="0.3">
<path d="M224.959 84.6172C225.102 85.4545 224.843 86.2957 224.287 87.0459C224.282 87.0069 224.277 86.9678 224.269 86.9292C223.906 84.7747 221.026 83.4664 217.84 84.0043C215.893 84.3335 214.28 85.2785 213.405 86.4556C213.138 84.3403 215.399 82.2204 218.53 81.6894C221.716 81.1517 224.596 82.4598 224.959 84.6172Z" fill="#293856"/>
</g>
<path d="M218.364 90.3255C215.294 90.3255 212.813 88.7897 212.418 86.4565C212.185 85.0821 212.722 83.6894 213.931 82.535C215.036 81.4791 216.599 80.7358 218.332 80.4424C222.111 79.8009 225.433 81.4407 225.896 84.1729C226.129 85.5473 225.592 86.9399 224.384 88.0944C223.278 89.1503 221.715 89.8936 219.983 90.187C219.431 90.2807 218.889 90.3255 218.364 90.3255ZM219.915 82.2754C219.507 82.2754 219.086 82.3098 218.66 82.3819C217.311 82.6105 216.114 83.1703 215.289 83.9575C214.872 84.3567 214.195 85.1693 214.358 86.128C214.627 87.7176 217.052 88.6868 219.654 88.2476C221.003 88.019 222.2 87.4592 223.024 86.672C223.442 86.2728 224.119 85.4602 223.956 84.5015C223.731 83.1718 221.998 82.2754 219.915 82.2754Z" fill="#371A45"/>
<path d="M255.822 78.4715C259.008 77.9298 261.294 75.7436 260.927 73.5884C260.561 71.4332 257.681 70.1252 254.495 70.6668C251.309 71.2084 249.023 73.3946 249.39 75.5498C249.756 77.705 252.636 79.0131 255.822 78.4715Z" fill="#FFCC05"/>
<g opacity="0.3">
<path d="M260.915 73.586C261.17 75.0887 260.134 76.6083 258.401 77.5736C258.788 76.9204 258.953 76.2125 258.833 75.5084C258.467 73.3542 255.586 72.046 252.401 72.5866C251.436 72.7502 250.555 73.0649 249.805 73.4851C250.597 72.1399 252.337 71.0294 254.483 70.6643C257.668 70.1208 260.549 71.4289 260.915 73.586Z" fill="#293856"/>
</g>
<path d="M254.376 79.5739C253.207 79.5739 252.09 79.3503 251.129 78.914C249.608 78.223 248.642 77.0854 248.408 75.7113C248.174 74.3369 248.71 72.944 249.918 71.7888C251.023 70.7324 252.585 69.9881 254.318 69.6937C256.05 69.3995 257.771 69.5849 259.163 70.2172C260.684 70.9083 261.651 72.0457 261.884 73.4199V73.4202C262.349 76.1521 259.753 78.7952 255.974 79.4375C255.438 79.5287 254.902 79.5739 254.376 79.5739ZM255.923 71.5235C255.507 71.5235 255.079 71.56 254.648 71.6333C253.298 71.8626 252.102 72.4229 251.278 73.2106C250.861 73.61 250.184 74.4232 250.347 75.3813C250.51 76.34 251.417 76.884 251.943 77.1227C252.981 77.5944 254.296 77.7277 255.645 77.4981C258.246 77.0559 260.215 75.3393 259.945 73.7498C259.782 72.7914 258.875 72.2474 258.349 72.0088C257.643 71.6878 256.809 71.5235 255.923 71.5235Z" fill="#371A45"/>
<path d="M133.918 99.7472C137.14 99.5013 139.618 97.535 139.451 95.3553C139.285 93.1756 136.538 91.608 133.316 91.8539C130.094 92.0998 127.616 94.0662 127.783 96.2458C127.949 98.4255 130.696 99.9932 133.918 99.7472Z" fill="#FFCC05"/>
<g opacity="0.3">
<path d="M139.451 95.3566C139.527 96.3746 139.029 97.3442 138.15 98.1114C138.186 97.8976 138.196 97.6784 138.18 97.4595C138.012 95.281 135.267 93.7129 132.045 93.9579C130.326 94.0894 128.818 94.7103 127.813 95.5919C128.126 93.6856 130.419 92.077 133.313 91.8552C136.537 91.61 139.283 93.1781 139.451 95.3566Z" fill="#293856"/>
</g>
<path d="M133.252 100.759C131.766 100.759 130.355 100.414 129.215 99.7631C127.764 98.9349 126.906 97.7132 126.8 96.323C126.694 94.9333 127.356 93.5956 128.665 92.5566C129.863 91.6063 131.487 91.0093 133.239 90.8756C134.993 90.7416 136.688 91.0855 138.015 91.8434C139.467 92.6716 140.324 93.8933 140.43 95.2833C140.536 96.6732 139.874 98.0107 138.565 99.0497C137.368 100 135.743 100.597 133.991 100.731C133.743 100.75 133.497 100.759 133.252 100.759ZM133.984 92.8145C133.788 92.8145 133.589 92.8221 133.389 92.8373C132.024 92.9416 130.781 93.3891 129.888 94.0978C129.436 94.4569 128.688 95.2043 128.762 96.1735V96.1737C128.836 97.143 129.688 97.7683 130.19 98.0545C131.18 98.6193 132.477 98.8742 133.841 98.7692C135.206 98.665 136.449 98.2174 137.342 97.5087C137.794 97.1496 138.542 96.4024 138.468 95.4331C138.395 94.4636 137.542 93.8384 137.04 93.5522C136.195 93.0699 135.127 92.8145 133.984 92.8145Z" fill="#371A45"/>
<path d="M96.3831 98.014C99.6053 97.77 102.084 95.8052 101.919 93.6255C101.754 91.4458 99.0077 89.8767 95.7854 90.1206C92.5632 90.3646 90.0849 92.3294 90.25 94.5091C90.415 96.6888 93.1609 98.258 96.3831 98.014Z" fill="#FFF5A4"/>
<path d="M95.7199 99.4305C92.0281 99.4305 89.0862 97.4108 88.8745 94.6145V94.6143C88.648 91.6235 91.6425 89.0406 95.6914 88.7341C99.7415 88.4239 103.09 90.5295 103.316 93.5201C103.431 95.0271 102.694 96.5268 101.297 97.6351C100.036 98.6349 98.3321 99.2619 96.4997 99.4007C96.2368 99.4206 95.9764 99.4305 95.7199 99.4305ZM91.6472 94.4044C91.7395 95.6152 93.6688 96.8246 96.2896 96.6279C97.5555 96.5318 98.7507 96.1049 99.5688 95.4563C99.9581 95.1474 100.603 94.5125 100.544 93.7306C100.452 92.5197 98.5203 91.3112 95.9015 91.507C93.2803 91.7056 91.5557 93.1933 91.6472 94.4044Z" fill="#293856"/>
<path d="M96.3831 98.014C99.6053 97.77 102.084 95.8052 101.919 93.6255C101.754 91.4459 99.0076 89.8767 95.7854 90.1207C92.5632 90.3646 90.0848 92.3294 90.2499 94.5091C90.4149 96.6888 93.1608 98.258 96.3831 98.014Z" fill="#FFCC05"/>
<g opacity="0.3">
<path d="M101.93 93.626C102.051 95.2159 100.763 96.6899 98.8064 97.4647C99.3267 96.8151 99.5978 96.0715 99.5404 95.303C99.3751 93.1242 96.6296 91.5533 93.4078 91.7983C92.533 91.866 91.7159 92.0568 90.9904 92.3495C91.9368 91.158 93.711 90.2781 95.7975 90.1214C99.0193 89.8762 101.765 91.4443 101.93 93.626Z" fill="#293856"/>
</g>
<path d="M95.7176 99.0238C92.2412 99.0238 89.4756 97.1636 89.2802 94.5839V94.5837C89.071 91.8205 91.9007 89.4293 95.7222 89.1399C99.5459 88.8537 102.702 90.788 102.911 93.551C103.016 94.9412 102.353 96.2784 101.044 97.3166C99.8461 98.2664 98.2213 98.8624 96.4691 98.9952C96.2155 99.0144 95.9648 99.0238 95.7176 99.0238ZM91.2417 94.4349C91.3637 96.0427 93.6857 97.2343 96.3204 97.0336C97.6849 96.9301 98.9285 96.4831 99.8216 95.775C100.274 95.4159 101.023 94.6691 100.949 93.6999C100.828 92.0918 98.4998 90.9005 95.8709 91.1014C93.2398 91.3007 91.1202 92.8273 91.2417 94.4352V94.4349Z" fill="#371A45"/>
<path d="M250.794 88.7659C250.404 88.7659 250.015 88.6021 249.74 88.2829C239.447 76.3335 221.328 72.0667 221.146 72.0249C220.398 71.8531 219.93 71.1075 220.101 70.3591C220.272 69.6109 221.018 69.1416 221.766 69.314C222.544 69.4918 240.947 73.8142 251.847 86.4677C252.348 87.0497 252.283 87.9276 251.701 88.4289C251.438 88.6552 251.116 88.7659 250.794 88.7659Z" fill="#371A45"/>
<path d="M103.324 106.848C103.114 106.848 102.9 106.8 102.699 106.699C102.013 106.353 101.738 105.517 102.084 104.831C109.604 89.9187 126.048 81.473 126.744 81.1208C127.428 80.7754 128.265 81.0485 128.612 81.7336C128.959 82.4185 128.685 83.2549 128 83.602C127.837 83.6843 111.667 92.0022 104.567 106.083C104.322 106.568 103.832 106.848 103.324 106.848Z" fill="#371A45"/>
<g opacity="0.35">
<path d="M122.101 62.8906C122.101 62.8906 119.449 53.7438 126.093 42.0931C131.768 32.141 137.117 37.1147 134.862 42.8348C131.769 50.6827 130.88 57.9212 130.341 65.5737C130.033 69.9529 123.705 72.708 122.101 62.8906Z" fill="white"/>
</g>
<g opacity="0.35">
<path d="M139.486 32.2388C137.963 33.187 133.03 34.3885 133.351 28.8451C133.672 23.3017 139.351 21.0329 141.694 22.6481C143.062 23.591 143.703 29.613 139.486 32.2388Z" fill="white"/>
</g>
<g opacity="0.5">
<path d="M81.6758 86.5593C86.7534 82.6747 95.0859 79.4372 102.988 78.8621C110.141 78.3416 97.4834 82.4496 93.056 84.0805C89.8666 85.2552 84.0446 88.3407 81.2248 89.2342C78.4051 90.1278 78.4646 89.016 81.6758 86.5593Z" fill="white"/>
</g>
<defs>
<filter id="filter0_f_1_175" x="0.785332" y="60.7853" width="346.753" height="383.38" filterUnits="userSpaceOnUse" color-interpolation-filters="sRGB">
<feFlood flood-opacity="0" result="BackgroundImageFix"/>
<feBlend mode="normal" in="SourceGraphic" in2="BackgroundImageFix" result="shape"/>
<feGaussianBlur stdDeviation="22.6073" result="effect1_foregroundBlur_1_175"/>
</filter>
<linearGradient id="paint0_linear_1_175" x1="174.201" y1="364.231" x2="159.883" y2="97.0879" gradientUnits="userSpaceOnUse">
<stop stop-color="#FFE809" stop-opacity="0"/>
<stop offset="1" stop-color="#6CFF00"/>
</linearGradient>
<linearGradient id="paint1_linear_1_175" x1="174.201" y1="364.231" x2="159.883" y2="97.0879" gradientUnits="userSpaceOnUse">
<stop stop-color="#FFE809" stop-opacity="0"/>
<stop offset="1" stop-color="#6CFF00"/>
</linearGradient>
</defs>
</svg>
